<?xml version="1.0" encoding="UTF-8" standalone="no"?>
<svg xmlns:dc="http://purl.org/dc/elements/1.1/" xmlns:cc="http://creativecommons.org/ns#" xmlns:rdf="http://www.w3.org/1999/02/22-rdf-syntax-ns#" xmlns:svg="http://www.w3.org/2000/svg" xmlns="http://www.w3.org/2000/svg" version="1.1" id="svg2" height="100" width="100">
  <defs id="defs4" />
  <metadata id="metadata7">
    <rdf:RDF>
      <cc:Work rdf:about="">
        <dc:format>image/svg+xml</dc:format>
        <dc:type rdf:resource="http://purl.org/dc/dcmitype/StillImage" />
        <dc:title></dc:title>
      </cc:Work>
    </rdf:RDF>
  </metadata>
  <g transform="translate(1.0000018,-930.93023)" id="layer1">
    <path id="Path-8" d="" style="fill:none;stroke:#979797;stroke-width:2.30739999" />
    <g transform="matrix(0.0998004,0,0,0.0998004,-2.0978072,927.3417)" id="g4380">
      <g transform="matrix(2.2077803,0,0,2.2077803,-762.09331,-436.67521)" id="g4218" style="fill:#ffffff;stroke:#ffffff">
        <path d="m 510.34117,457.00903 c 0,0 14.29289,5.89719 27.47845,1.79621" id="path4220" style="fill:#ffffff;stroke:#ffffff;stroke-width:4.10099316;stroke-opacity:1" />
        <path d="m 641.47983,457.35147 c 0,0 -14.29286,5.89715 -27.47842,1.79617" id="path4222" style="fill:#ffffff;stroke:#ffffff;stroke-width:4.10099316;stroke-opacity:1" />
        <path id="path4224" d="m 465.98416,468.6292 4.12575,0" style="fill:#ffffff;stroke:#ffffff;stroke-width:4.10099316;stroke-opacity:1" />
        <path id="path4226" d="m 467.39087,480.93219 8.22674,0" style="fill:#ffffff;stroke:#ffffff;stroke-width:4.10099316;stroke-opacity:1" />
        <path id="path4228" d="m 467.39087,492.20992 14.07313,0" style="fill:#ffffff;stroke:#ffffff;stroke-width:4.10099316;stroke-opacity:1" />
        <path id="path4230" d="m 468.41611,503.48765 20.29772,0" style="fill:#ffffff;stroke:#ffffff;stroke-width:4.10099316;stroke-opacity:1" />
        <path id="path4232" d="m 470.46662,514.76539 25.25274,0" style="fill:#ffffff;stroke:#ffffff;stroke-width:4.10099316;stroke-opacity:1" />
        <path id="path4234" d="m 474.56761,526.04311 29.9765,0" style="fill:#ffffff;stroke:#ffffff;stroke-width:4.10099316;stroke-opacity:1" />
        <path id="path4236" d="m 480.29358,537.32084 29.45887,0" style="fill:#ffffff;stroke:#ffffff;stroke-width:4.10099316;stroke-opacity:1" />
        <path id="path4238" d="m 485.66412,548.59857 24.82523,0" style="fill:#ffffff;stroke:#ffffff;stroke-width:4.10099316;stroke-opacity:1" />
        <path id="path4240" d="m 491.20687,559.87631 18.88398,0" style="fill:#ffffff;stroke:#ffffff;stroke-width:4.10099316;stroke-opacity:1" />
        <path id="path4242" d="m 497.12307,571.15399 15.05634,0" style="fill:#ffffff;stroke:#ffffff;stroke-width:4.10099316;stroke-opacity:1" />
        <path id="path4244" d="m 505.32506,584.43219 7.52816,0" style="fill:#ffffff;stroke:#ffffff;stroke-width:4.10099316;stroke-opacity:1" />
        <path id="path4246" d="m 689.22595,463.50297 -4.12574,0" style="fill:#ffffff;stroke:#ffffff;stroke-width:4.10099316" />
        <path id="path4248" d="m 687.81924,475.80594 -8.22673,0" style="fill:#ffffff;stroke:#ffffff;stroke-width:4.10099316;stroke-opacity:1" />
        <path id="path4250" d="m 687.81924,487.08367 -14.07314,0" style="fill:#ffffff;stroke:#ffffff;stroke-width:4.10099316;stroke-opacity:1" />
        <path id="path4252" d="m 686.794,498.36141 -20.29769,0" style="fill:#ffffff;stroke:#ffffff;stroke-width:4.10099316;stroke-opacity:1" />
        <path id="path4254" d="m 684.7435,509.63914 -25.25272,0" style="fill:#ffffff;stroke:#ffffff;stroke-width:4.10099316;stroke-opacity:1" />
        <path id="path4256" d="m 680.64251,520.91687 -29.9765,0" style="fill:#ffffff;stroke:#ffffff;stroke-width:4.10099316;stroke-opacity:1" />
        <path id="path4258" d="m 676.32828,532.19461 -30.87062,0" style="fill:#ffffff;stroke:#ffffff;stroke-width:4.10099316;stroke-opacity:1" />
        <path id="path4260" d="m 671.41528,543.47229 -26.6945,0" style="fill:#ffffff;stroke:#ffffff;stroke-width:4.10099316;stroke-opacity:1" />
        <path id="path4262" d="m 666.28903,554.75002 -21.16978,0" style="fill:#ffffff;stroke:#ffffff;stroke-width:4.10099316;stroke-opacity:1" />
        <path id="path4264" d="m 658.08705,566.02775 -15.05633,0" style="fill:#ffffff;stroke:#ffffff;stroke-width:4.10099316;stroke-opacity:1" />
        <path id="path4266" d="m 649.88506,579.30595 -7.52816,0" style="fill:#ffffff;stroke:#ffffff;stroke-width:4.10099316;stroke-opacity:1" />
        <path d="m 576.68947,532.61911 c -16.5016,0 -33.37317,-14.61882 -33.37317,-14.61882 l -20.09246,24.74312 1.45078,68.90389 9.63974,10.50882 32.95712,9.6167 33.33056,-3.16786 20.2837,-8.93687 7.21882,-7.21779 -1.18846,-75.31168 -17.36213,-19.13833 -7.52616,5.67792 13.58754,21.64436 c 0,0 8.29072,35.4913 1.68504,46.0661 -6.60568,10.57476 -25.42615,5.18218 -25.42615,5.18218 -2.75805,-0.58055 -4.99388,-3.35491 -4.99388,-6.17023 l 0,-9.34272 c 0,-2.82719 -2.29777,-5.11904 -5.1329,-5.11904 l -12.60607,0 c -2.83482,0 -5.1329,2.28728 -5.1329,5.11722 l 0,9.53657 c 0,2.82617 -2.1071,6.01504 -4.78854,6.96089 0,0 -16.96737,8.77961 -25.84775,-6.16487 -8.88037,-14.94453 0,-46.0661 0,-46.0661 0,0 23.73153,2.26613 44.54726,3.6164 20.1192,1.30509 35.62412,-1.12246 37.69589,-3.81467 0.83801,-1.08895 -2.14629,-3.38535 -4.96606,-7.98568 -4.68133,-7.6375 -8.9569,-13.46041 -8.9569,-13.46041 0,0 -8.50134,8.9409 -25.00298,8.9409 z" id="path4268" style="fill:#ffffff;fill-opacity:1;stroke:#ffffff" />
        <path d="m 643.14936,262.18396 c 25.50857,16.50056 41.92855,26.76672 48.51659,59.2723 4.75358,23.45452 4.27268,100.35792 4.27268,100.35792 l -4.27268,14.50366 -17.06678,-43.4649 4.43939,-25.81542 -5.60283,-19.41166 -23.93613,-26.35008 c 0,0 -12.2146,-8.3967 -24.15843,-7.18977 -11.94383,1.20694 -15.90721,12.65321 -27.15304,18.29229 -9.97122,4.99992 -18.67179,5.73725 -20.51599,5.84019 0,0.19644 -9.62886,-0.0204 -20.87469,-5.6597 -11.24583,-5.63909 -15.20924,-17.08531 -27.15307,-18.29228 -11.94382,-1.20694 -24.15841,7.18975 -24.15841,7.18975 l -23.93614,26.35009 -5.60283,19.41165 4.43941,25.81543 -17.06679,43.4649 -4.27269,-14.50366 c 0,0 -5.83842,-77.20724 -0.26482,-100.53841 7.28314,-30.48739 27.54552,-43.61649 53.05408,-60.11706 25.50857,-16.50058 65.48124,-15.71864 65.48124,-15.71864 0.35072,-0.1805 40.32336,0.0628 65.83193,16.5634 z" id="path4270" style="fill:#ffffff;fill-opacity:1;stroke:#ffffff" />
        <path d="m 691.78006,439.67094 -16.55447,-42.89936 c -0.81486,-2.11168 -0.84446,-5.54627 -0.15219,-7.70625 0,0 5.84944,-13.64362 1.15975,-29.62108 -4.68973,-15.97746 -22.24207,-35.17583 -22.24207,-35.17583" id="path4272" style="fill:#ffffff;stroke:#ffffff;stroke-width:6.15148973" />
        <path d="m 704.34641,440.66815 c 0,0 -13.54552,14.3034 -15.39479,35.35605" id="path4274" style="fill:#ffffff;stroke:#ffffff;stroke-width:6.15148973" />
        <path d="m 695.61477,429.28529 c 0,0 8.72462,-18.11905 13.51247,-3.03571 4.78774,15.08338 4.91996,20.45991 2.41693,34.96659 -2.50302,14.50664 -11.1249,32.81462 -11.1249,32.81462 -1.3777,3.1039 -4.51494,7.48741 -7.0091,9.79263 l -9.69192,8.95753 11.89652,-83.49566 z" id="path4276" style="fill:#ffffff;stroke:#ffffff;stroke-width:6.15148973" />
        <path d="m 697.27478,449.28261 c 5.15627,4.12605 5.34348,11.52504 5.34348,11.52504" id="path4278" style="fill:#ffffff;stroke:#ffffff;stroke-width:6.15148973" />
        <path style="fill:#ffffff;stroke:#ffffff;stroke-width:6.15148973" id="path4280" d="m 675.08074,398.55187 18.74581,13.66167" />
        <path style="fill:#ffffff;stroke:#ffffff;stroke-width:6.15148973" id="path4282" d="m 676.42035,384.26847 c 0,1.05928 17.4613,14.26941 17.4613,14.26941" />
        <path style="fill:#ffffff;stroke:#ffffff;stroke-width:6.15148973" id="path4284" d="m 678.73118,371.39279 16.69034,15.68611" />
        <path d="m 573.77318,631.4241 c -6.18001,-0.22865 -14.55306,-1.58404 -19.82531,-3.26934 l -12.74793,-4.07491 c -3.7829,-1.20921 -8.84742,-4.69036 -11.31933,-7.77769 0,0 -43.24431,-51.26553 -59.18171,-109.78134 -5.37445,-19.73285 -10.72907,-85.13763 -10.72907,-85.13763 l -2.05049,-86.92986 c 2.60768,-33.59388 33.41049,-58.81492 55.91808,-72.28108 28.56542,-16.55927 64.02197,-14.83006 64.02197,-14.83006 l 0,0.16631 c 8.91895,-0.0133 37.454,1.10492 61.21928,14.88156 28.32972,19.48746 54.0027,36.56113 55.91807,72.28108 l -2.05049,86.92986 c 0,0 -5.35463,65.40478 -10.72907,85.13763 -15.93739,58.51581 -59.18172,109.78134 -59.18172,109.78134 -2.47191,3.08734 -7.53643,6.56849 -11.31933,7.7777 l -12.74793,4.07495 c -5.92844,1.89502 -15.79204,3.38526 -22.0216,3.32852 l -3.17346,-0.0289 0,-0.24816 z" id="path4286" style="fill:#ffffff;stroke:#ffffff;stroke-width:6.15148973" />
        <path d="m 462.40479,439.67094 16.55449,-42.89936 c 0.81489,-2.11168 0.84445,-5.54627 0.15219,-7.70625 0,0 -5.84946,-13.64362 -1.15974,-29.62108 4.6897,-15.97746 22.24208,-35.17583 22.24208,-35.17583" id="path4288" style="fill:#ffffff;stroke:#ffffff;stroke-width:6.15148973" />
        <path d="m 449.83849,440.66815 c 0,0 13.54549,14.3034 15.39475,35.35605" id="path4290" style="fill:#ffffff;stroke:#ffffff;stroke-width:6.15148973" />
        <path d="m 458.57012,429.28529 c 0,0 -8.72461,-18.11905 -13.51244,-3.03571 -4.78782,15.08338 -4.91999,20.45991 -2.41695,34.96659 2.50305,14.50664 11.12486,32.81462 11.12486,32.81462 1.37772,3.1039 4.51493,7.48741 7.00911,9.79263 l 9.69191,8.95753 -11.89649,-83.49566 z" id="path4292" style="fill:#ffffff;stroke:#ffffff;stroke-width:6.15148973" />
        <path d="m 456.9101,449.28261 c -5.15627,4.12605 -5.3435,11.52504 -5.3435,11.52504" id="path4294" style="fill:#ffffff;stroke:#ffffff;stroke-width:6.15148973" />
        <path style="fill:#ffffff;stroke:#ffffff;stroke-width:6.15148973" id="path4296" d="m 479.10412,398.55187 -18.74581,13.66167" />
        <path style="fill:#ffffff;stroke:#ffffff;stroke-width:6.15148973" id="path4298" d="m 477.76449,384.26847 c 0,1.05928 -17.46125,14.26941 -17.46125,14.26941" />
        <path style="fill:#ffffff;stroke:#ffffff;stroke-width:6.15148973" id="path4300" d="M 475.45368,371.39279 458.76336,387.0789" />
        <path style="fill:#ffffff;stroke:#ffffff;stroke-width:6.15148973" id="path4302" d="m 537.75203,555.05323 18.86734,-2.91676 c 1.88178,-0.29091 4.81764,0.12427 6.5472,0.92261 l 10.89872,5.03071 c 1.02405,0.47268 2.68233,0.45099 3.69412,-0.0436 l 10.05586,-4.91642 c 1.71708,-0.83948 4.65318,-1.30975 6.5334,-1.05382 l 21.86942,2.97732" />
        <path style="fill:#ffffff;stroke:#ffffff;stroke-width:6.15148973" id="path4304" d="m 609.69411,561.96284 c 0,0 -32.56365,21.73643 -65.58984,0.39146" />
        <path d="m 528.54749,453.18138 c 5.59632,0 10.13305,-4.53674 10.13305,-10.13308 0,-5.5963 -6.05979,-7.67461 -10.90516,-7.67461 -4.84535,0 -9.36096,2.07831 -9.36096,7.67461 0,5.59634 4.53673,10.13308 10.13307,10.13308 z" id="path4306" style="fill:#ffffff;stroke:#ffffff" />
        <path d="m 499.18057,445.56409 c 0,0 17.18693,-17.25197 53.87762,-3.83866" id="path4308" style="fill:#ffffff;stroke:#ffffff;stroke-width:6.15148973" />
        <path d="m 627.6879,453.18138 c -5.59634,0 -10.13309,-4.53674 -10.13309,-10.13308 0,-5.5963 6.05983,-7.67461 10.90516,-7.67461 4.84538,0 9.36098,2.07831 9.36098,7.67461 0,5.59634 -4.53675,10.13308 -10.13305,10.13308 z" id="path4310" style="fill:#ffffff;stroke:#ffffff" />
        <path d="m 657.05478,445.56409 c 0,0 -17.18693,-17.25197 -53.87757,-3.83866" id="path4312" style="fill:#ffffff;stroke:#ffffff;stroke-width:6.15148973" />
        <path style="fill:#ffffff;stroke:#ffffff;stroke-width:6.15148973" id="path4314" d="m 597.27503,514.48603 c 0,0 -3.93157,-1.30957 -8.24509,3.21291 -4.31342,4.52244 -3.52407,6.81372 -3.52407,6.81372 -0.37057,2.79831 -2.96088,4.95402 -5.7998,4.81427 l -5.60674,-0.27602 c -2.83256,-0.13942 -5.29437,-2.54009 -5.79478,-5.32401 0,0 0.666,-2.86512 -3.5171,-6.66175 -4.18311,-3.79663 -8.19999,-4.35027 -8.19999,-4.35027" />
        <path style="fill:#ffffff;stroke:#ffffff;stroke-width:6.15148973" id="path4316" d="m 558.98688,521.70383 c 0,0 -9.96841,-1.70495 -10.06874,-8.91385 -0.10037,-7.20896 10.1362,-14.82651 10.1362,-14.82651 1.72916,-1.45017 3.13093,-4.45833 3.13093,-6.73024 l 0,-16.54566" />
        <path style="fill:#ffffff;stroke:#ffffff;stroke-width:6.15148973" id="path4318" d="m 594.34516,521.81797 c 0,0 9.96843,-1.70494 10.06879,-8.91389 0.10037,-7.20891 -10.1362,-14.82646 -10.1362,-14.82646 -1.7292,-1.45017 -3.13097,-4.4594 -3.13097,-6.73264 l 0,-16.55531" />
        <path style="fill:#ffffff;stroke:#ffffff;stroke-width:6.15148973" id="path4320" d="m 580.54066,577.74306 0,60.05208" />
        <path style="fill:#ffffff;stroke:#ffffff;stroke-width:6.15148973" id="path4322" d="m 569.44012,578.33078 0,59.41406" />
        <path style="fill:#ffffff;stroke:#ffffff;stroke-width:6.15148973" id="path4324" d="m 593.55549,584.06872 -1.08433,50.65067" />
        <path d="m 556.52841,581.40652 1.07004,53.56645" id="path4326" style="fill:#ffffff;stroke:#ffffff;stroke-width:6.15148973" />
        <path d="m 545.30974,588.58322 0,41.00998" id="path4328" style="fill:#ffffff;stroke:#ffffff;stroke-width:6.15148973" />
        <path d="m 534.03201,581.40652 0,38.9594" id="path4330" style="fill:#ffffff;stroke:#ffffff;stroke-width:6.15148973" />
        <path style="fill:#ffffff;stroke:#ffffff;stroke-width:6.15148973" id="path4332" d="m 604.77413,591.18642 0,40.45723" />
        <path style="fill:#ffffff;stroke:#ffffff;stroke-width:6.15148973" id="path4334" d="m 616.21809,584.48227 0,36.41728" />
        <path style="fill:#ffffff;stroke:#ffffff;stroke-width:6.15148973" id="path4336" d="m 610.92363,523.02846 15.19649,16.66924 0,74.96279" />
        <path style="fill:#ffffff;stroke:#ffffff;stroke-width:6.15148973" id="path4338" d="m 540.00128,523.99258 -15.1965,20.32678 0,65.39911" />
        <path style="fill:#ffffff;stroke:#ffffff;stroke-width:6.15148973" id="path4340" d="m 602.01528,525.07038 11.87647,21.28694" />
        <path d="m 537.53428,546.74981 11.87645,-21.28695" id="path4342" style="fill:#ffffff;stroke:#ffffff;stroke-width:6.15148973" />
        <path d="m 551.59487,545.52532 4.99259,-18.01192" id="path4344" style="fill:#ffffff;stroke:#ffffff;stroke-width:6.15148973" />
        <path d="m 562.85359,545.99991 1.93585,-14.38552" id="path4346" style="fill:#ffffff;stroke:#ffffff;stroke-width:6.15148973" />
        <path style="fill:#ffffff;stroke:#ffffff;stroke-width:6.15148973" id="path4348" d="m 594.51916,527.5134 4.99258,18.01192" />
        <path style="fill:#ffffff;stroke:#ffffff;stroke-width:6.15148973" id="path4350" d="m 587.75441,531.64995 1.93586,14.38551" />
        <path style="fill:#ffffff;stroke:#ffffff;stroke-width:6.15148973" id="path4352" d="m 574.52931,337.67175 0,-68.12245" />
        <path style="fill:#ffffff;stroke:#ffffff;stroke-width:6.15148973" id="path4354" d="m 590.42065,337.85348 0,-68.12246" />
        <path d="m 604.15438,331.22789 c 0,0 2.58814,-38.59997 12.4952,-57.39889" id="path4356" style="fill:#ffffff;stroke:#ffffff;stroke-width:6.15148973" />
        <path d="m 621.56059,312.06155 c 0,0 5.35351,-31.14992 13.81178,-42.45067" id="path4358" style="fill:#ffffff;stroke:#ffffff;stroke-width:6.15148973" />
        <path d="m 634.34913,326.58926 c 0,0 3.58237,-22.28012 13.06594,-35.80061" id="path4360" style="fill:#ffffff;stroke:#ffffff;stroke-width:6.15148973" />
        <path d="m 558.23246,331.22789 c 0,0 -2.58813,-38.59997 -12.4952,-57.39889" id="path4362" style="fill:#ffffff;stroke:#ffffff;stroke-width:6.15148973" />
        <path d="m 540.82628,312.06155 c 0,0 -5.35352,-31.14992 -13.81182,-42.45067" id="path4364" style="fill:#ffffff;stroke:#ffffff;stroke-width:6.15148973" />
        <path d="m 528.03771,326.58926 c 0,0 -3.58236,-22.28012 -13.06591,-35.80061" id="path4366" style="fill:#ffffff;stroke:#ffffff;stroke-width:6.15148973" />
        <path style="fill:#ffffff;stroke:#ffffff" id="path4368" d="m 674.75536,529.32507 c 6.88702,-20.15186 15.26057,-75.28964 15.26057,-75.28964 l -42.12929,60.17924 -1.96239,68.83582 c 0,0 21.02088,-30.87226 28.83111,-53.72542 z" />
        <path style="fill:#ffffff;stroke:#ffffff;stroke-width:6.15148973" id="path4370" d="m 572.11637,534.01978 0,12.74482" />
        <path style="fill:#ffffff;stroke:#ffffff;stroke-width:6.15148973" id="path4372" d="m 580.54066,534.2451 0,12.74478" />
        <path style="fill:#ffffff;stroke:#ffffff;stroke-width:6.15148973" id="path4374" d="m 557.62071,417.24864 c 0,0 -38.07033,-8.74665 -69.5727,9.83997" />
        <path style="fill:#ffffff;stroke:#ffffff;stroke-width:6.15148973" id="path4376" d="m 598.62264,417.37243 c 0,0 38.07038,-8.74665 69.57271,9.83997" />
      </g>
      <g id="g3274" transform="matrix(2.2077803,0,0,2.2077803,-762.09331,-436.67521)">
        <path style="fill:none;stroke:#ff2747;stroke-width:4.10099316;stroke-opacity:1" id="Path-53" d="m 510.34117,457.00903 c 0,0 14.29289,5.89719 27.47845,1.79621" />
        <path style="fill:none;stroke:#ff2747;stroke-width:4.10099316;stroke-opacity:1" id="path14" d="m 641.47983,457.35147 c 0,0 -14.29286,5.89715 -27.47842,1.79617" />
        <path style="fill:none;stroke:#ff2747;stroke-width:4.10099316;stroke-opacity:1" d="m 465.98416,468.6292 4.12575,0" id="Path-71" />
        <path style="fill:none;stroke:#ff2747;stroke-width:4.10099316;stroke-opacity:1" d="m 467.39087,480.93219 8.22674,0" id="path18" />
        <path style="fill:none;stroke:#ff2747;stroke-width:4.10099316;stroke-opacity:1" d="m 467.39087,492.20992 14.07313,0" id="path20" />
        <path style="fill:none;stroke:#ff2747;stroke-width:4.10099316;stroke-opacity:1" d="m 468.41611,503.48765 20.29772,0" id="path22" />
        <path style="fill:none;stroke:#ff2747;stroke-width:4.10099316;stroke-opacity:1" d="m 470.46662,514.76539 25.25274,0" id="path24" />
        <path style="fill:none;stroke:#ff2747;stroke-width:4.10099316;stroke-opacity:1" d="m 474.56761,526.04311 29.9765,0" id="path26" />
        <path style="fill:none;stroke:#ff2747;stroke-width:4.10099316;stroke-opacity:1" d="m 480.29358,537.32084 29.45887,0" id="path28" />
        <path style="fill:none;stroke:#ff2747;stroke-width:4.10099316;stroke-opacity:1" d="m 485.66412,548.59857 24.82523,0" id="path30" />
        <path style="fill:none;stroke:#ff2747;stroke-width:4.10099316;stroke-opacity:1" d="m 491.20687,559.87631 18.88398,0" id="path32" />
        <path style="fill:none;stroke:#ff2747;stroke-width:4.10099316;stroke-opacity:1" d="m 497.12307,571.15399 15.05634,0" id="path34" />
        <path style="fill:none;stroke:#ff2747;stroke-width:4.10099316;stroke-opacity:1" d="m 505.32506,584.43219 7.52816,0" id="path36" />
        <path style="fill:none;stroke:#f93a56;stroke-width:4.10099316" d="m 689.22595,463.50297 -4.12574,0" id="path40" />
        <path style="fill:none;stroke:#ff2747;stroke-width:4.10099316;stroke-opacity:1" d="m 687.81924,475.80594 -8.22673,0" id="path42" />
        <path style="fill:none;stroke:#ff2747;stroke-width:4.10099316;stroke-opacity:1" d="m 687.81924,487.08367 -14.07314,0" id="path44" />
        <path style="fill:none;stroke:#ff2747;stroke-width:4.10099316;stroke-opacity:1" d="m 686.794,498.36141 -20.29769,0" id="path46" />
        <path style="fill:none;stroke:#ff2747;stroke-width:4.10099316;stroke-opacity:1" d="m 684.7435,509.63914 -25.25272,0" id="path48" />
        <path style="fill:none;stroke:#ff2747;stroke-width:4.10099316;stroke-opacity:1" d="m 680.64251,520.91687 -29.9765,0" id="path50" />
        <path style="fill:none;stroke:#ff2747;stroke-width:4.10099316;stroke-opacity:1" d="m 676.32828,532.19461 -30.87062,0" id="path52" />
        <path style="fill:none;stroke:#ff2747;stroke-width:4.10099316;stroke-opacity:1" d="m 671.41528,543.47229 -26.6945,0" id="path54" />
        <path style="fill:none;stroke:#ff2747;stroke-width:4.10099316;stroke-opacity:1" d="m 666.28903,554.75002 -21.16978,0" id="path56" />
        <path style="fill:none;stroke:#ff2747;stroke-width:4.10099316;stroke-opacity:1" d="m 658.08705,566.02775 -15.05633,0" id="path58" />
        <path style="fill:none;stroke:#ff2747;stroke-width:4.10099316;stroke-opacity:1" d="m 649.88506,579.30595 -7.52816,0" id="path60" />
        <path style="fill:#ff2747;fill-opacity:1;stroke:none" id="Path-55" d="m 576.68947,532.61911 c -16.5016,0 -33.37317,-14.61882 -33.37317,-14.61882 l -20.09246,24.74312 1.45078,68.90389 9.63974,10.50882 32.95712,9.6167 33.33056,-3.16786 20.2837,-8.93687 7.21882,-7.21779 -1.18846,-75.31168 -17.36213,-19.13833 -7.52616,5.67792 13.58754,21.64436 c 0,0 8.29072,35.4913 1.68504,46.0661 -6.60568,10.57476 -25.42615,5.18218 -25.42615,5.18218 -2.75805,-0.58055 -4.99388,-3.35491 -4.99388,-6.17023 l 0,-9.34272 c 0,-2.82719 -2.29777,-5.11904 -5.1329,-5.11904 l -12.60607,0 c -2.83482,0 -5.1329,2.28728 -5.1329,5.11722 l 0,9.53657 c 0,2.82617 -2.1071,6.01504 -4.78854,6.96089 0,0 -16.96737,8.77961 -25.84775,-6.16487 -8.88037,-14.94453 0,-46.0661 0,-46.0661 0,0 23.73153,2.26613 44.54726,3.6164 20.1192,1.30509 35.62412,-1.12246 37.69589,-3.81467 0.83801,-1.08895 -2.14629,-3.38535 -4.96606,-7.98568 -4.68133,-7.6375 -8.9569,-13.46041 -8.9569,-13.46041 0,0 -8.50134,8.9409 -25.00298,8.9409 z" />
        <path style="fill:#ff2747;fill-opacity:1;stroke:none" id="Path-49" d="m 643.14936,262.18396 c 25.50857,16.50056 41.92855,26.76672 48.51659,59.2723 4.75358,23.45452 4.27268,100.35792 4.27268,100.35792 l -4.27268,14.50366 -17.06678,-43.4649 4.43939,-25.81542 -5.60283,-19.41166 -23.93613,-26.35008 c 0,0 -12.2146,-8.3967 -24.15843,-7.18977 -11.94383,1.20694 -15.90721,12.65321 -27.15304,18.29229 -9.97122,4.99992 -18.67179,5.73725 -20.51599,5.84019 0,0.19644 -9.62886,-0.0204 -20.87469,-5.6597 -11.24583,-5.63909 -15.20924,-17.08531 -27.15307,-18.29228 -11.94382,-1.20694 -24.15841,7.18975 -24.15841,7.18975 l -23.93614,26.35009 -5.60283,19.41165 4.43941,25.81543 -17.06679,43.4649 -4.27269,-14.50366 c 0,0 -5.83842,-77.20724 -0.26482,-100.53841 7.28314,-30.48739 27.54552,-43.61649 53.05408,-60.11706 25.50857,-16.50058 65.48124,-15.71864 65.48124,-15.71864 0.35072,-0.1805 40.32336,0.0628 65.83193,16.5634 z" />
        <path style="fill:none;stroke:#111111;stroke-width:6.15148973" id="Path-3" d="m 691.78006,439.67094 -16.55447,-42.89936 c -0.81486,-2.11168 -0.84446,-5.54627 -0.15219,-7.70625 0,0 5.84944,-13.64362 1.15975,-29.62108 -4.68973,-15.97746 -22.24207,-35.17583 -22.24207,-35.17583" />
        <path style="fill:none;stroke:#111111;stroke-width:6.15148973" id="Path-47" d="m 704.34641,440.66815 c 0,0 -13.54552,14.3034 -15.39479,35.35605" />
        <path style="fill:none;stroke:#111111;stroke-width:6.15148973" id="Path-36" d="m 695.61477,429.28529 c 0,0 8.72462,-18.11905 13.51247,-3.03571 4.78774,15.08338 4.91996,20.45991 2.41693,34.96659 -2.50302,14.50664 -11.1249,32.81462 -11.1249,32.81462 -1.3777,3.1039 -4.51494,7.48741 -7.0091,9.79263 l -9.69192,8.95753 11.89652,-83.49566 z" />
        <path style="fill:none;stroke:#111111;stroke-width:6.15148973" id="Path-48" d="m 697.27478,449.28261 c 5.15627,4.12605 5.34348,11.52504 5.34348,11.52504" />
        <path d="m 675.08074,398.55187 18.74581,13.66167" id="Path-39" style="fill:none;stroke:#111111;stroke-width:6.15148973" />
        <path d="m 676.42035,384.26847 c 0,1.05928 17.4613,14.26941 17.4613,14.26941" id="Path-40" style="fill:none;stroke:#111111;stroke-width:6.15148973" />
        <path d="m 678.73118,371.39279 16.69034,15.68611" id="Path-41" style="fill:none;stroke:#111111;stroke-width:6.15148973" />
        <path style="fill:none;stroke:#111111;stroke-width:6.15148973" id="Path-1" d="m 573.77318,631.4241 c -6.18001,-0.22865 -14.55306,-1.58404 -19.82531,-3.26934 l -12.74793,-4.07491 c -3.7829,-1.20921 -8.84742,-4.69036 -11.31933,-7.77769 0,0 -43.24431,-51.26553 -59.18171,-109.78134 -5.37445,-19.73285 -10.72907,-85.13763 -10.72907,-85.13763 l -2.05049,-86.92986 c 2.60768,-33.59388 33.41049,-58.81492 55.91808,-72.28108 28.56542,-16.55927 64.02197,-14.83006 64.02197,-14.83006 l 0,0.16631 c 8.91895,-0.0133 37.454,1.10492 61.21928,14.88156 28.32972,19.48746 54.0027,36.56113 55.91807,72.28108 l -2.05049,86.92986 c 0,0 -5.35463,65.40478 -10.72907,85.13763 -15.93739,58.51581 -59.18172,109.78134 -59.18172,109.78134 -2.47191,3.08734 -7.53643,6.56849 -11.31933,7.7777 l -12.74793,4.07495 c -5.92844,1.89502 -15.79204,3.38526 -22.0216,3.32852 l -3.17346,-0.0289 0,-0.24816 z" />
        <path style="fill:none;stroke:#111111;stroke-width:6.15148973" id="path77" d="m 462.40479,439.67094 16.55449,-42.89936 c 0.81489,-2.11168 0.84445,-5.54627 0.15219,-7.70625 0,0 -5.84946,-13.64362 -1.15974,-29.62108 4.6897,-15.97746 22.24208,-35.17583 22.24208,-35.17583" />
        <path style="fill:none;stroke:#111111;stroke-width:6.15148973" id="path79" d="m 449.83849,440.66815 c 0,0 13.54549,14.3034 15.39475,35.35605" />
        <path style="fill:none;stroke:#111111;stroke-width:6.15148973" id="path81" d="m 458.57012,429.28529 c 0,0 -8.72461,-18.11905 -13.51244,-3.03571 -4.78782,15.08338 -4.91999,20.45991 -2.41695,34.96659 2.50305,14.50664 11.12486,32.81462 11.12486,32.81462 1.37772,3.1039 4.51493,7.48741 7.00911,9.79263 l 9.69191,8.95753 -11.89649,-83.49566 z" />
        <path style="fill:none;stroke:#111111;stroke-width:6.15148973" id="path83" d="m 456.9101,449.28261 c -5.15627,4.12605 -5.3435,11.52504 -5.3435,11.52504" />
        <path d="m 479.10412,398.55187 -18.74581,13.66167" id="path87" style="fill:none;stroke:#111111;stroke-width:6.15148973" />
        <path d="m 477.76449,384.26847 c 0,1.05928 -17.46125,14.26941 -17.46125,14.26941" id="path89" style="fill:none;stroke:#111111;stroke-width:6.15148973" />
        <path d="M 475.45368,371.39279 458.76336,387.0789" id="path91" style="fill:none;stroke:#111111;stroke-width:6.15148973" />
        <path d="m 537.75203,555.05323 18.86734,-2.91676 c 1.88178,-0.29091 4.81764,0.12427 6.5472,0.92261 l 10.89872,5.03071 c 1.02405,0.47268 2.68233,0.45099 3.69412,-0.0436 l 10.05586,-4.91642 c 1.71708,-0.83948 4.65318,-1.30975 6.5334,-1.05382 l 21.86942,2.97732" id="path93" style="fill:none;stroke:#111111;stroke-width:6.15148973" />
        <path d="m 609.69411,561.96284 c 0,0 -32.56365,21.73643 -65.58984,0.39146" id="Path-4" style="fill:none;stroke:#111111;stroke-width:6.15148973" />
        <path style="fill:#111111;stroke:none" id="Oval-1" d="m 528.54749,453.18138 c 5.59632,0 10.13305,-4.53674 10.13305,-10.13308 0,-5.5963 -6.05979,-7.67461 -10.90516,-7.67461 -4.84535,0 -9.36096,2.07831 -9.36096,7.67461 0,5.59634 4.53673,10.13308 10.13307,10.13308 z" />
        <path style="fill:none;stroke:#111111;stroke-width:6.15148973" id="Path-94" d="m 499.18057,445.56409 c 0,0 17.18693,-17.25197 53.87762,-3.83866" />
        <path style="fill:#111111;stroke:none" id="path101" d="m 627.6879,453.18138 c -5.59634,0 -10.13309,-4.53674 -10.13309,-10.13308 0,-5.5963 6.05983,-7.67461 10.90516,-7.67461 4.84538,0 9.36098,2.07831 9.36098,7.67461 0,5.59634 -4.53675,10.13308 -10.13305,10.13308 z" />
        <path style="fill:none;stroke:#111111;stroke-width:6.15148973" id="path103" d="m 657.05478,445.56409 c 0,0 -17.18693,-17.25197 -53.87757,-3.83866" />
        <path d="m 597.27503,514.48603 c 0,0 -3.93157,-1.30957 -8.24509,3.21291 -4.31342,4.52244 -3.52407,6.81372 -3.52407,6.81372 -0.37057,2.79831 -2.96088,4.95402 -5.7998,4.81427 l -5.60674,-0.27602 c -2.83256,-0.13942 -5.29437,-2.54009 -5.79478,-5.32401 0,0 0.666,-2.86512 -3.5171,-6.66175 -4.18311,-3.79663 -8.19999,-4.35027 -8.19999,-4.35027" id="Path-7" style="fill:none;stroke:#111111;stroke-width:6.15148973" />
        <path d="m 558.98688,521.70383 c 0,0 -9.96841,-1.70495 -10.06874,-8.91385 -0.10037,-7.20896 10.1362,-14.82651 10.1362,-14.82651 1.72916,-1.45017 3.13093,-4.45833 3.13093,-6.73024 l 0,-16.54566" id="Path-9" style="fill:none;stroke:#111111;stroke-width:6.15148973" />
        <path d="m 594.34516,521.81797 c 0,0 9.96843,-1.70494 10.06879,-8.91389 0.10037,-7.20891 -10.1362,-14.82646 -10.1362,-14.82646 -1.7292,-1.45017 -3.13097,-4.4594 -3.13097,-6.73264 l 0,-16.55531" id="path108" style="fill:none;stroke:#111111;stroke-width:6.15148973" />
        <path d="m 580.54066,577.74306 0,60.05208" id="Path-11" style="fill:none;stroke:#111111;stroke-width:6.15148973" />
        <path d="m 569.44012,578.33078 0,59.41406" id="path111" style="fill:none;stroke:#111111;stroke-width:6.15148973" />
        <path d="m 593.55549,584.06872 -1.08433,50.65067" id="path113" style="fill:none;stroke:#111111;stroke-width:6.15148973" />
        <path style="fill:none;stroke:#111111;stroke-width:6.15148973" id="path116" d="m 556.52841,581.40652 1.07004,53.56645" />
        <path style="fill:none;stroke:#111111;stroke-width:6.15148973" id="path118" d="m 545.30974,588.58322 0,41.00998" />
        <path style="fill:none;stroke:#111111;stroke-width:6.15148973" id="path120" d="m 534.03201,581.40652 0,38.9594" />
        <path d="m 604.77413,591.18642 0,40.45723" id="path122" style="fill:none;stroke:#111111;stroke-width:6.15148973" />
        <path d="m 616.21809,584.48227 0,36.41728" id="path124" style="fill:none;stroke:#111111;stroke-width:6.15148973" />
        <path d="m 610.92363,523.02846 15.19649,16.66924 0,74.96279" id="Path-21" style="fill:none;stroke:#111111;stroke-width:6.15148973" />
        <path d="m 540.00128,523.99258 -15.1965,20.32678 0,65.39911" id="path127" style="fill:none;stroke:#111111;stroke-width:6.15148973" />
        <path d="m 602.01528,525.07038 11.87647,21.28694" id="Path-23" style="fill:none;stroke:#111111;stroke-width:6.15148973" />
        <path style="fill:none;stroke:#111111;stroke-width:6.15148973" id="path131" d="m 537.53428,546.74981 11.87645,-21.28695" />
        <path style="fill:none;stroke:#111111;stroke-width:6.15148973" id="Path-24" d="m 551.59487,545.52532 4.99259,-18.01192" />
        <path style="fill:none;stroke:#111111;stroke-width:6.15148973" id="Path-25" d="m 562.85359,545.99991 1.93585,-14.38552" />
        <path d="m 594.51916,527.5134 4.99258,18.01192" id="path135" style="fill:none;stroke:#111111;stroke-width:6.15148973" />
        <path d="m 587.75441,531.64995 1.93586,14.38551" id="path137" style="fill:none;stroke:#111111;stroke-width:6.15148973" />
        <path d="m 574.52931,337.67175 0,-68.12245" id="Path-26" style="fill:none;stroke:#111111;stroke-width:6.15148973" />
        <path d="m 590.42065,337.85348 0,-68.12246" id="path140" style="fill:none;stroke:#111111;stroke-width:6.15148973" />
        <path style="fill:none;stroke:#111111;stroke-width:6.15148973" id="Path-28" d="m 604.15438,331.22789 c 0,0 2.58814,-38.59997 12.4952,-57.39889" />
        <path style="fill:none;stroke:#111111;stroke-width:6.15148973" id="Path-29" d="m 621.56059,312.06155 c 0,0 5.35351,-31.14992 13.81178,-42.45067" />
        <path style="fill:none;stroke:#111111;stroke-width:6.15148973" id="Path-30" d="m 634.34913,326.58926 c 0,0 3.58237,-22.28012 13.06594,-35.80061" />
        <path style="fill:none;stroke:#111111;stroke-width:6.15148973" id="path148" d="m 558.23246,331.22789 c 0,0 -2.58813,-38.59997 -12.4952,-57.39889" />
        <path style="fill:none;stroke:#111111;stroke-width:6.15148973" id="path150" d="m 540.82628,312.06155 c 0,0 -5.35352,-31.14992 -13.81182,-42.45067" />
        <path style="fill:none;stroke:#111111;stroke-width:6.15148973" id="path152" d="m 528.03771,326.58926 c 0,0 -3.58236,-22.28012 -13.06591,-35.80061" />
        <path d="m 674.75536,529.32507 c 6.88702,-20.15186 15.26057,-75.28964 15.26057,-75.28964 l -42.12929,60.17924 -1.96239,68.83582 c 0,0 21.02088,-30.87226 28.83111,-53.72542 z" id="Path-38" style="fill:none;stroke:none" />
        <path d="m 572.11637,534.01978 0,12.74482" id="Path-45" style="fill:none;stroke:#111111;stroke-width:6.15148973" />
        <path d="m 580.54066,534.2451 0,12.74478" id="path156" style="fill:none;stroke:#111111;stroke-width:6.15148973" />
        <path d="m 557.62071,417.24864 c 0,0 -38.07033,-8.74665 -69.5727,9.83997" id="Path-188" style="fill:none;stroke:#111111;stroke-width:6.15148973" />
        <path d="m 598.62264,417.37243 c 0,0 38.07038,-8.74665 69.57271,9.83997" id="path159" style="fill:none;stroke:#111111;stroke-width:6.15148973" />
      </g>
    </g>
  </g>
</svg>
