<?xml version="1.0" standalone="no"?>
<!DOCTYPE svg PUBLIC "-//W3C//DTD SVG 20010904//EN"
 "http://www.w3.org/TR/2001/REC-SVG-20010904/DTD/svg10.dtd">
<svg version="1.0" xmlns="http://www.w3.org/2000/svg"
 width="100.000000pt" height="100.000000pt" viewBox="0 0 100.000000 100.000000"
 preserveAspectRatio="xMidYMid meet">
<metadata>
Created by potrace 1.11, written by Peter Selinger 2001-2013
</metadata>
<g transform="translate(0.000000,100.000000) scale(0.100000,-0.100000)"
fill="#000000" stroke="none">
<path d="M425 921 c-69 -18 -145 -75 -171 -128 -14 -30 -17 -59 -16 -140 2
-83 0 -103 -12 -103 -16 0 -26 -21 -26 -55 0 -36 29 -117 50 -140 10 -11 37
-56 60 -101 56 -109 92 -151 141 -164 44 -12 102 -5 136 17 25 17 94 119 122
184 11 25 29 54 41 64 32 29 56 117 44 162 -5 21 -15 37 -22 35 -9 -1 -12 27
-12 105 0 94 -3 113 -23 145 -24 41 -74 82 -126 105 -40 17 -144 25 -186 14z
m18 -173 c41 -29 104 -26 132 7 18 22 45 26 46 7 0 -10 3 -12 6 -4 9 22 23 13
53 -35 23 -36 30 -58 29 -93 -1 -25 6 -63 15 -84 15 -35 15 -60 4 -118 -2 -7
-7 -16 -13 -20 -6 -5 -6 -8 2 -8 21 0 1 -40 -21 -41 -17 -1 -17 -2 -3 -6 9 -2
17 -9 17 -14 0 -6 -4 -7 -10 -4 -6 3 -7 -1 -4 -9 5 -12 -1 -16 -22 -17 l-29
-1 30 -8 c20 -5 24 -8 10 -9 -15 -1 -17 -3 -6 -10 8 -5 9 -11 3 -15 -6 -4 -15
2 -21 11 -9 16 -10 15 -8 -4 1 -13 6 -23 12 -24 5 0 1 -4 -10 -9 -11 -5 -15
-9 -8 -9 8 -1 5 -14 -10 -38 l-22 -38 -3 69 c-3 69 -25 122 -45 109 -6 -4 -8
0 -4 10 3 8 -1 21 -9 27 -8 7 -14 23 -14 36 0 13 -4 24 -9 24 -13 0 -7 -46 8
-64 9 -11 10 -20 1 -35 -6 -12 -13 -21 -16 -21 -2 0 0 9 6 20 13 25 -5 27 -19
3 -10 -17 -12 -17 -25 0 -7 9 -17 17 -21 17 -4 0 -2 -7 5 -15 7 -9 10 -18 7
-22 -4 -3 -12 6 -18 20 -10 21 -9 30 2 43 16 20 20 42 8 50 -5 3 -9 -4 -9 -16
0 -12 -7 -28 -16 -37 -8 -9 -13 -22 -10 -29 3 -8 -1 -14 -8 -14 -26 0 -46 -47
-46 -107 -1 -54 -2 -56 -16 -38 -8 11 -12 25 -10 32 3 8 -2 13 -12 13 -15 0
-15 2 -2 10 13 8 12 10 -2 10 -10 0 -18 5 -18 11 0 5 4 8 8 5 4 -2 14 0 22 6
13 8 13 9 -1 5 -9 -3 -22 -1 -30 4 -10 6 -6 9 16 10 29 2 29 2 -5 8 -38 7 -54
36 -23 44 15 4 14 5 -3 6 -22 1 -42 41 -21 41 8 0 8 3 2 8 -25 18 -29 101 -8
152 12 28 18 60 16 85 -4 32 2 49 27 88 33 49 47 56 69 35 11 -11 13 -10 8 5
-7 20 -3 18 46 -15z m-209 -252 c-8 -32 -26 -35 -20 -3 3 12 5 29 5 37 1 10 4
11 12 3 5 -5 7 -22 3 -37z m550 -33 c-3 -14 -14 -42 -25 -62 l-20 -36 6 40 c4
22 12 45 18 50 14 12 16 37 3 46 -5 4 -5 15 -1 25 6 17 8 15 15 -9 5 -15 6
-40 4 -54z m-533 -49 c9 -52 4 -55 -15 -9 -19 45 -20 58 -4 53 7 -3 16 -22 19
-44z m179 -149 c-12 -14 -10 -15 12 -11 14 2 31 0 38 -4 7 -5 23 -5 35 0 11 4
33 6 48 3 21 -4 27 -11 27 -32 0 -14 -4 -30 -8 -36 -12 -17 -42 -14 -43 4 0
12 -2 12 -9 -4 -8 -19 -9 -19 -9 2 -1 12 -7 24 -13 26 -7 3 -2 6 12 6 14 1 31
5 37 9 7 5 -19 8 -58 8 -57 -1 -66 -3 -46 -11 13 -5 22 -16 20 -23 -3 -6 -9
-10 -14 -6 -5 3 -9 -5 -9 -18 0 -17 -3 -19 -9 -9 -5 8 -14 10 -22 6 -9 -6 -11
-3 -6 8 3 10 2 17 -3 17 -6 0 -10 15 -10 34 0 24 5 36 18 39 9 3 19 5 21 6 2
0 -2 -6 -9 -14z m77 -1 c-3 -3 -12 -4 -19 -1 -8 3 -5 6 6 6 11 1 17 -2 13 -5z"/>
<path d="M353 558 c-24 -5 -43 -14 -43 -20 0 -6 7 -7 18 -2 9 4 44 11 77 14
33 4 56 8 50 9 -33 8 -65 8 -102 -1z"/>
<path d="M559 559 c-9 -6 3 -9 33 -9 26 0 59 -5 74 -10 15 -6 29 -8 32 -6 16
17 -116 40 -139 25z"/>
<path d="M348 513 c-10 -2 -18 -9 -18 -14 0 -5 11 -7 25 -3 15 4 25 2 25 -5 0
-6 7 -11 15 -11 8 0 15 5 15 10 0 6 10 10 23 10 18 0 19 2 7 10 -15 10 -61 11
-92 3z"/>
<path d="M565 510 c-3 -5 1 -10 9 -10 9 0 16 -4 16 -10 0 -5 9 -10 20 -10 11
0 20 7 20 15 0 13 4 14 20 5 11 -6 20 -7 20 -1 0 20 -93 31 -105 11z"/>
<path d="M373 463 c9 -2 25 -2 35 0 9 3 1 5 -18 5 -19 0 -27 -2 -17 -5z"/>
<path d="M584 461 c5 -8 56 -3 56 5 0 2 -14 4 -31 4 -16 0 -28 -4 -25 -9z"/>
<path d="M290 370 c0 -5 5 -10 11 -10 5 0 7 5 4 10 -3 6 -8 10 -11 10 -2 0 -4
-4 -4 -10z"/>
<path d="M475 50 c3 -5 8 -10 11 -10 2 0 4 5 4 10 0 6 -5 10 -11 10 -5 0 -7
-4 -4 -10z"/>
<path d="M516 51 c9 -9 34 -9 34 -1 0 5 -9 8 -20 7 -10 -1 -17 -3 -14 -6z"/>
<path d="M566 52 c-3 -4 4 -9 15 -9 23 -2 25 3 4 10 -8 4 -16 3 -19 -1z"/>
</g>
</svg>
